{"title":"Hi-5.Travelling.Circus[2007]-Bearmeister.avi","uid":4023588,"size":733956096,"categoryP":"video","categoryS":"movies","magnet":"?xt=urn:btih:59bddeacfccdbbc0c04a0df5400afe625d2e5076&amp;dn=Hi-5.Travelling.Circus%5B2007%5D-Bearmeister.avi&amp;tr=udp%3A%2F%2Ftracker.openbittorrent.com%3A80&amp;tr=udp%3A%2F%2Fopen.demonii.com%3A1337&amp;tr=udp%3A%2F%2Ftracker.coppersurfer.tk%3A6969&amp;tr=udp%3A%2F%2Fexodus.desync.com%3A6969","seeders":0,"leechers":0,"uploader":"bearmeister","files":1,"time":1202787058,"description":"\nAll Bearmeister torrents located here &lt;a href=&quot;\nhttp://thepiratebay.se/user/bearmeister/&quot; rel=&quot;nofollow&quot; target=&quot;_NEW&quot;&gt;\nhttp://thepiratebay.se/user/bearmeister/&lt;/a&gt;\n\n  Duration: 00:56:51.3, bitrate: 1721 kb/s\n  Stream #0.0: Video: mpeg4, 608x352, 25.00 fps\n  Stream #0.1: Audio: mp3, 24000 Hz, stereo, 61 kb/s\n\nRoll Up Roll Up! Get on the road with Hi-5s Travelling Circus! See the whole troupe perform dull-defying acts under Hi-5s big top of fun! Clown around with Charli and gaze in wonder as Kellie walks the plank! Razzle, dazzle and dance with Kathleen, then join Nathan for a road trip in his extraordinary caravan. Go on a journey with Tim on his magical, mystery holiday! Travelling circus is an extravaganza of excitement and adventure, so step right up with your favourite Hi-5 friends and lets get on with the show!Featuring brand new, dazzling songs! Pretending Day Are we there yet Hey, What&amp;#039;s Cooking!","torrent":{"xt":"urn:btih:59bddeacfccdbbc0c04a0df5400afe625d2e5076","amp;dn":"Hi-5.Travelling.Circus%5B2007%5D-Bearmeister.avi","amp;tr":["udp%3A%2F%2Ftracker.openbittorrent.com%3A80","udp%3A%2F%2Fopen.demonii.com%3A1337","udp%3A%2F%2Ftracker.coppersurfer.tk%3A6969","udp%3A%2F%2Fexodus.desync.com%3A6969"],"infoHash":"59bddeacfccdbbc0c04a0df5400afe625d2e5076","infoHashBuffer":{"type":"Buffer","data":[89,189,222,172,252,205,187,192,192,74,13,245,64,10,254,98,93,46,80,118]},"announce":[],"urlList":[]}}